<?xml version="1.0" encoding="UTF-8" standalone="no"?>
<!-- Created with Inkscape (http://www.inkscape.org/) -->

<svg
   width="24"
   height="24"
   viewBox="0 0 6.3499998 6.3499999"
   version="1.1"
   id="svg1899"
   xml:space="preserve"
   inkscape:version="1.4.3 (0d15f75042, 2025-12-25)"
   sodipodi:docname="comm-layout-switcher.svg"
   inkscape:export-filename="../layout-switcher.svg"
   inkscape:export-xdpi="96"
   inkscape:export-ydpi="96"
   xmlns:inkscape="http://www.inkscape.org/namespaces/inkscape"
   xmlns:sodipodi="http://sodipodi.sourceforge.net/DTD/sodipodi-0.dtd"
   xmlns:xlink="http://www.w3.org/1999/xlink"
   xmlns="http://www.w3.org/2000/svg"
   xmlns:svg="http://www.w3.org/2000/svg"><sodipodi:namedview
     id="namedview1901"
     pagecolor="#ffffff"
     bordercolor="#666666"
     borderopacity="1.0"
     inkscape:showpageshadow="2"
     inkscape:pageopacity="0.0"
     inkscape:pagecheckerboard="0"
     inkscape:deskcolor="#d1d1d1"
     inkscape:document-units="mm"
     showgrid="false"
     inkscape:zoom="22.627417"
     inkscape:cx="-0.86178639"
     inkscape:cy="4.3089319"
     inkscape:window-width="3440"
     inkscape:window-height="1372"
     inkscape:window-x="0"
     inkscape:window-y="0"
     inkscape:window-maximized="1"
     inkscape:current-layer="layer1"
     showguides="false"><inkscape:page
       x="0"
       y="0"
       width="6.3499999"
       height="6.3499999"
       id="page2"
       margin="0"
       bleed="0" /></sodipodi:namedview><defs
     id="defs1896"><linearGradient
       id="linearGradient24"
       inkscape:collect="always"><stop
         style="stop-color:#4474ba;stop-opacity:1;"
         offset="0"
         id="stop25" /><stop
         style="stop-color:#4d9ee8;stop-opacity:1;"
         offset="1"
         id="stop26" /></linearGradient><style
       id="style125">.cls-1{fill:#2b91c9;}.cls-2{fill:#02679a;}.cls-3{fill:#fff;stroke:#231f20;}.cls-3,.cls-5{stroke-miterlimit:10;}.cls-4{font-size:37.88px;font-family:Lato-Bold, Lato;font-weight:700;}.cls-4,.cls-6{fill:#002b44;}.cls-5{fill:none;stroke:#002b44;stroke-width:6px;}</style><style
       id="style2805">.cls-1{fill:#069;}.cls-2{fill:#2991c9;}.cls-3{fill:#fff;}.cls-4{fill:#002a44;}.cls-5{fill:#3380cc;}.cls-6{fill:#cc5e55;}</style><clipPath
       id="59b66204e4"><path
         d="M 49.289062 34.460938 L 174.203125 34.460938 L 174.203125 97.710938 L 49.289062 97.710938 Z M 49.289062 34.460938 "
         clip-rule="nonzero"
         id="path1-2" /></clipPath><clipPath
       id="b08e5ca2ed"><path
         d="M 172.9375 63.4375 L 144.507812 35.003906 C 144.0625 34.558594 143.394531 34.425781 142.816406 34.667969 C 142.234375 34.90625 141.859375 35.472656 141.859375 36.101562 L 141.859375 45.472656 C 141.859375 47.542969 140.179688 49.21875 138.109375 49.21875 L 53.039062 49.21875 C 50.96875 49.21875 49.289062 50.898438 49.289062 52.96875 L 49.289062 79.203125 C 49.289062 81.273438 50.96875 82.953125 53.039062 82.953125 L 138.109375 82.953125 C 140.179688 82.953125 141.859375 84.628906 141.859375 86.699219 L 141.859375 96.070312 C 141.859375 96.699219 142.234375 97.265625 142.816406 97.503906 C 143.394531 97.746094 144.0625 97.613281 144.507812 97.167969 L 172.9375 68.734375 C 174.402344 67.273438 174.402344 64.898438 172.9375 63.4375 Z M 172.9375 63.4375 "
         clip-rule="nonzero"
         id="path2" /></clipPath><clipPath
       id="11fe1750aa"><path
         d="M 0.289062 0.460938 L 125.203125 0.460938 L 125.203125 63.710938 L 0.289062 63.710938 Z M 0.289062 0.460938 "
         clip-rule="nonzero"
         id="path3" /></clipPath><clipPath
       id="9a412175d5"><path
         d="M 123.9375 29.4375 L 95.507812 1.003906 C 95.0625 0.558594 94.394531 0.425781 93.816406 0.667969 C 93.234375 0.90625 92.859375 1.472656 92.859375 2.101562 L 92.859375 11.472656 C 92.859375 13.542969 91.179688 15.21875 89.109375 15.21875 L 4.039062 15.21875 C 1.96875 15.21875 0.289062 16.898438 0.289062 18.96875 L 0.289062 45.203125 C 0.289062 47.273438 1.96875 48.953125 4.039062 48.953125 L 89.109375 48.953125 C 91.179688 48.953125 92.859375 50.628906 92.859375 52.699219 L 92.859375 62.070312 C 92.859375 62.699219 93.234375 63.265625 93.816406 63.503906 C 94.394531 63.746094 95.0625 63.613281 95.507812 63.167969 L 123.9375 34.734375 C 125.402344 33.273438 125.402344 30.898438 123.9375 29.4375 Z M 123.9375 29.4375 "
         clip-rule="nonzero"
         id="path4" /></clipPath><clipPath
       id="ae5fa02500"><rect
         x="0"
         width="126"
         y="0"
         height="64"
         id="rect4" /></clipPath><clipPath
       id="0979d4186c"><path
         d="M 50.671875 137.097656 L 175.585938 137.097656 L 175.585938 200.34375 L 50.671875 200.34375 Z M 50.671875 137.097656 "
         clip-rule="nonzero"
         id="path5" /></clipPath><clipPath
       id="471064a53d"><path
         d="M 51.9375 171.371094 L 80.371094 199.800781 C 80.8125 200.246094 81.480469 200.378906 82.0625 200.136719 C 82.640625 199.898438 83.019531 199.332031 83.019531 198.703125 L 83.019531 189.335938 C 83.019531 187.265625 84.699219 185.585938 86.765625 185.585938 L 171.839844 185.585938 C 173.910156 185.585938 175.585938 183.90625 175.585938 181.839844 L 175.585938 155.601562 C 175.585938 153.53125 173.910156 151.855469 171.839844 151.855469 L 86.765625 151.855469 C 84.699219 151.855469 83.019531 150.175781 83.019531 148.105469 L 83.019531 138.734375 C 83.019531 138.109375 82.640625 137.542969 82.0625 137.300781 C 81.480469 137.0625 80.8125 137.195312 80.371094 137.636719 L 51.9375 166.070312 C 50.472656 167.535156 50.472656 169.90625 51.9375 171.371094 Z M 51.9375 171.371094 "
         clip-rule="nonzero"
         id="path6" /></clipPath><clipPath
       id="fb06b51b81"><path
         d="M 0.671875 0.0976562 L 125.585938 0.0976562 L 125.585938 63.34375 L 0.671875 63.34375 Z M 0.671875 0.0976562 "
         clip-rule="nonzero"
         id="path7" /></clipPath><clipPath
       id="fc982a3943"><path
         d="M 1.9375 34.371094 L 30.371094 62.800781 C 30.8125 63.246094 31.480469 63.378906 32.0625 63.136719 C 32.640625 62.898438 33.019531 62.332031 33.019531 61.703125 L 33.019531 52.335938 C 33.019531 50.265625 34.699219 48.585938 36.765625 48.585938 L 121.839844 48.585938 C 123.910156 48.585938 125.585938 46.90625 125.585938 44.839844 L 125.585938 18.601562 C 125.585938 16.53125 123.910156 14.855469 121.839844 14.855469 L 36.765625 14.855469 C 34.699219 14.855469 33.019531 13.175781 33.019531 11.105469 L 33.019531 1.734375 C 33.019531 1.109375 32.640625 0.542969 32.0625 0.300781 C 31.480469 0.0625 30.8125 0.195312 30.371094 0.636719 L 1.9375 29.070312 C 0.472656 30.535156 0.472656 32.90625 1.9375 34.371094 Z M 1.9375 34.371094 "
         clip-rule="nonzero"
         id="path8" /></clipPath><clipPath
       id="1ca1c229da"><rect
         x="0"
         width="126"
         y="0"
         height="64"
         id="rect8" /></clipPath><linearGradient
       id="a"
       x1=".05"
       x2="1"
       y2="1"
       gradientTransform="matrix(22 0 0 22 -56.75 -22.125)"
       gradientUnits="userSpaceOnUse"><stop
         offset="0.205"
         stop-color="#7e0000"
         style="stop-color:#4474ba;stop-opacity:1;"
         id="stop1" /><stop
         offset="0.205"
         stop-color="#ae0003"
         style="stop-color:#2f2f2f;stop-opacity:1;"
         id="stop2" /><stop
         offset="1"
         stop-color="#7e0002"
         style="stop-color:#131313;stop-opacity:1;"
         id="stop3" /></linearGradient><linearGradient
       id="c"
       x1="123.3"
       x2="8.261"
       y1="120.17"
       y2="13.466"
       gradientTransform="translate(53.824 2.949)scale(.18333)"
       gradientUnits="userSpaceOnUse"><stop
         offset="0"
         stop-color="#0257a9"
         id="stop4" /><stop
         offset="1"
         stop-color="#4c92d6"
         id="stop5" /></linearGradient><linearGradient
       xlink:href="#a"
       id="e"
       x1=".05"
       x2="1"
       y2="1"
       gradientTransform="matrix(5.8208333,0,0,5.8208333,0.01141137,-10.590681)"
       gradientUnits="userSpaceOnUse" /><linearGradient
       id="f"
       x1="8.626"
       x2="11.245"
       y1="9.359"
       y2="7.15"
       gradientTransform="matrix(0.76977,0,0,0.76977,82.367,6.297)"
       gradientUnits="userSpaceOnUse"><stop
         offset="0"
         stop-color="#cbc900"
         id="stop6" /><stop
         offset="1"
         stop-color="#f4ed12"
         id="stop7" /></linearGradient><linearGradient
       id="g"
       x1="6.983"
       x2="17.978"
       y1="16.954"
       y2="10.606"
       gradientTransform="matrix(0.76977,0,0,0.76977,82.367,6.297)"
       gradientUnits="userSpaceOnUse"><stop
         offset="0"
         stop-color="#84faa1"
         id="stop8" /><stop
         offset="1"
         stop-color="#33c478"
         id="stop9" /></linearGradient><linearGradient
       x1="0"
       y1="0"
       x2="1"
       y2="0"
       gradientUnits="userSpaceOnUse"
       gradientTransform="matrix(1.6570861,0,0,1.6570861,31.380303,12.96638)"
       spreadMethod="pad"
       id="linearGradient10"><stop
         style="stop-opacity:1;stop-color:#2e86c8"
         offset="0"
         id="stop9-3" /><stop
         style="stop-opacity:1;stop-color:#14bccd"
         offset="1"
         id="stop10" /></linearGradient><style
       id="current-color-scheme"
       type="text/css">
   .ColorScheme-Text { color:#dfdfdf; }
  </style><linearGradient
       id="linearGradient77"
       x1=".05"
       x2="1"
       y2="1"
       gradientTransform="matrix(22,0,0,22,-56.75,-22.125)"
       gradientUnits="userSpaceOnUse"><stop
         stop-color="#7e0000"
         offset="0.2"
         id="stop75"
         style="stop-color:#1a2973;stop-opacity:1;" /><stop
         stop-color="#ae0003"
         offset="0.205"
         id="stop76"
         style="stop-color:#273ead;stop-opacity:1;" /><stop
         stop-color="#7e0002"
         offset="1"
         id="stop77"
         style="stop-color:#2945c4;stop-opacity:1;" /></linearGradient><linearGradient
       id="linearGradient71"
       x1="0.050000001"
       x2="1"
       y1="0"
       y2="1"
       gradientTransform="matrix(22,0,0,22,148.25,3.3011262)"
       gradientUnits="userSpaceOnUse"
       spreadMethod="pad"><stop
         style="stop-color:#f9f9f9;stop-opacity:0.50196081;"
         offset="0.2"
         id="stop69" /><stop
         style="stop-color:#ba9060;stop-opacity:1;"
         offset="0.205"
         id="stop70" /><stop
         style="stop-color:#6a3c19;stop-opacity:1;"
         offset="1"
         id="stop71" /></linearGradient><linearGradient
       id="linearGradient67"
       x1="0.050000001"
       x2="1"
       y1="0"
       y2="1"
       gradientTransform="matrix(22,0,0,22,148.25,3.3011262)"
       gradientUnits="userSpaceOnUse"
       spreadMethod="pad"><stop
         style="stop-color:#b4f1fb;stop-opacity:1;"
         offset="0"
         id="stop65" /><stop
         style="stop-color:#80c5ef;stop-opacity:1;"
         offset="0.205"
         id="stop66" /><stop
         style="stop-color:#7668fe;stop-opacity:1;"
         offset="0.60250002"
         id="stop68" /><stop
         style="stop-color:#1d40bb;stop-opacity:1;"
         offset="1"
         id="stop67" /></linearGradient><linearGradient
       id="linearGradient64"
       x1="0.050000001"
       x2="1"
       y1="0"
       y2="1"
       gradientTransform="matrix(22,0,0,22,148.25,3.3011262)"
       gradientUnits="userSpaceOnUse"
       spreadMethod="pad"><stop
         style="stop-color:#55199d;stop-opacity:1;"
         offset="0.2"
         id="stop62" /><stop
         style="stop-color:#ba9060;stop-opacity:1;"
         offset="0.205"
         id="stop63" /><stop
         style="stop-color:#6a3c19;stop-opacity:1;"
         offset="1"
         id="stop64" /></linearGradient><linearGradient
       id="linearGradient61"
       x1="0.050000001"
       x2="1"
       y1="0"
       y2="1"
       gradientTransform="matrix(22,0,0,22,148.25,3.3011262)"
       gradientUnits="userSpaceOnUse"
       spreadMethod="pad"><stop
         style="stop-color:#43127b;stop-opacity:1;"
         offset="0.2"
         id="stop59" /><stop
         style="stop-color:#ba9060;stop-opacity:1;"
         offset="0.205"
         id="stop60" /><stop
         style="stop-color:#6a3c19;stop-opacity:1;"
         offset="1"
         id="stop61" /></linearGradient><linearGradient
       id="linearGradient58"
       x1=".05"
       x2="1"
       y1="0"
       y2="1"
       gradientTransform="matrix(22,0,0,22,148.25,3.3011262)"
       gradientUnits="userSpaceOnUse"><stop
         style="stop-color:#411178;stop-opacity:1;"
         offset="0.2"
         id="stop56" /><stop
         style="stop-color:#ba9060;stop-opacity:1;"
         offset="0.205"
         id="stop57" /><stop
         style="stop-color:#6a3c19;stop-opacity:1;"
         offset="1"
         id="stop58" /></linearGradient><linearGradient
       id="linearGradient53"
       x1=".05"
       x2="1"
       y2="1"
       gradientTransform="matrix(22,0,0,22,-55.75,5.375)"
       gradientUnits="userSpaceOnUse"><stop
         stop-color="#2191d3"
         offset=".2"
         id="stop51" /><stop
         stop-color="#2ac2f0"
         offset=".205"
         id="stop52" /><stop
         stop-color="#0948bd"
         offset="1"
         id="stop53"
         style="stop-color:#fafafa;stop-opacity:0.80000001;" /></linearGradient><style
       id="style11382">.cls-1{fill:#069;}.cls-2{fill:#2991c9;}.cls-3{fill:#fff;}.cls-4{fill:#002a44;}.cls-5{fill:#3380cc;}.cls-6{fill:#cc5e55;}</style><radialGradient
       id="paint0_radial_29_23"
       cx="0"
       cy="0"
       r="1"
       gradientUnits="userSpaceOnUse"
       gradientTransform="matrix(0,22,-22,0,11.999988,1.0000149)"><stop
         stop-color="#8FC8FF"
         id="stop11537" /><stop
         offset="1"
         stop-color="#0056A8"
         id="stop11539"
         style="stop-color:#006699;stop-opacity:1;" /></radialGradient><radialGradient
       id="paint0_radial_1_40"
       cx="0"
       cy="0"
       r="1"
       gradientUnits="userSpaceOnUse"
       gradientTransform="matrix(0,24,-24,0,-2.29062,44.73684)"><stop
         stop-color="#C2E5FF"
         id="stop11601" /><stop
         offset="1"
         stop-color="#3276AA"
         id="stop11603" /></radialGradient><radialGradient
       fx="0"
       fy="0"
       cx="0"
       cy="0"
       r="1"
       gradientUnits="userSpaceOnUse"
       gradientTransform="matrix(0,16.5,-16.5,0,8.999991,0.750011)"
       spreadMethod="pad"
       id="radialGradient16463"><stop
         style="stop-opacity:1;stop-color:#8fc8ff"
         offset="0"
         id="stop16459" /><stop
         style="stop-opacity:1;stop-color:#006699"
         offset="1"
         id="stop16461" /></radialGradient><clipPath
       clipPathUnits="userSpaceOnUse"
       id="clipPath16473"><path
         d="M 0,0 H 151 V 116 H 0 Z"
         id="path16471" /></clipPath><radialGradient
       fx="0"
       fy="0"
       cx="0"
       cy="0"
       r="1"
       gradientUnits="userSpaceOnUse"
       gradientTransform="matrix(0,16.5,-16.5,0,8.999991,0.750011)"
       spreadMethod="pad"
       id="radialGradient16463-5"><stop
         style="stop-opacity:1;stop-color:#8fc8ff"
         offset="0"
         id="stop16459-9" /><stop
         style="stop-opacity:1;stop-color:#006699"
         offset="1"
         id="stop16461-4" /></radialGradient><clipPath
       clipPathUnits="userSpaceOnUse"
       id="clipPath16473-9"><path
         d="M 0,0 H 151 V 116 H 0 Z"
         id="path16471-0" /></clipPath><style
       id="style1">.cls-1{fill:#16171c;stroke:#000;stroke-miterlimit:10;}.cls-2{fill:#2c2d3d;}.cls-3{fill:url(#linear-gradient);}.cls-4{fill:url(#linear-gradient-2);}.cls-5{fill:url(#linear-gradient-3);}</style><linearGradient
       id="linear-gradient"
       x1="70.74"
       y1="207.69"
       x2="304.39"
       y2="456.44"
       gradientTransform="matrix(1, 0, 0, -1, 16.81, 529.63)"
       gradientUnits="userSpaceOnUse"><stop
         offset="0"
         stop-color="#2d85c6"
         id="stop1-9" /><stop
         offset="1"
         stop-color="#04bacc"
         id="stop2-1" /></linearGradient><linearGradient
       id="linear-gradient-2"
       x1="146.39"
       y1="136.63"
       x2="380.04"
       y2="385.38"
       xlink:href="#linear-gradient" /><linearGradient
       id="linear-gradient-3"
       x1="127.32"
       y1="154.54"
       x2="360.97"
       y2="403.29"
       xlink:href="#linear-gradient" /><linearGradient
       id="a-27"
       x1="123.3"
       x2="8.2605"
       y1="120.17"
       y2="13.466"
       gradientTransform="matrix(0.18333,0,0,0.18333,53.823536,2.948851)"
       gradientUnits="userSpaceOnUse"><stop
         stop-color="#0257a9"
         offset="0"
         id="stop1-3" /><stop
         stop-color="#4c92d6"
         offset="1"
         id="stop2-6" /></linearGradient><style
       id="style2">.cls-1{stroke:#333;stroke-miterlimit:10;stroke-width:6px;fill:url(#linear-gradient);}.cls-2{fill:url(#linear-gradient-2);}.cls-3{fill:#0d0e0e;}.cls-4{opacity:0.7;isolation:isolate;fill:url(#linear-gradient-3);}</style><linearGradient
       id="linear-gradient-35"
       x1="100.05"
       y1="164.11"
       x2="100.05"
       y2="3.23"
       gradientUnits="userSpaceOnUse"><stop
         offset="0"
         id="stop4-6" /><stop
         offset="0.6"
         stop-color="#fff"
         id="stop6-0" /><stop
         offset="0.66"
         stop-color="#fff"
         id="stop8-9" /><stop
         offset="0.7"
         stop-color="#fafafa"
         id="stop10-3" /><stop
         offset="0.74"
         stop-color="#ececec"
         id="stop12" /><stop
         offset="0.78"
         stop-color="#d5d5d5"
         id="stop14-3" /><stop
         offset="0.83"
         stop-color="#b4b4b4"
         id="stop16" /><stop
         offset="0.88"
         stop-color="#8a8a8a"
         id="stop18" /><stop
         offset="0.93"
         stop-color="#575757"
         id="stop20" /><stop
         offset="0.98"
         stop-color="#1b1b1b"
         id="stop22" /><stop
         offset="1"
         id="stop24" /></linearGradient><linearGradient
       id="linear-gradient-2-2"
       x1="106.56"
       y1="83.76"
       x2="195.62"
       y2="83.76"
       gradientUnits="userSpaceOnUse"><stop
         offset="0"
         id="stop27" /><stop
         offset="1"
         stop-color="#fff"
         id="stop29" /></linearGradient><linearGradient
       id="linear-gradient-3-9"
       x1="100.54"
       y1="86.27"
       x2="100.54"
       y2="5.83"
       gradientUnits="userSpaceOnUse"><stop
         offset="0"
         stop-color="#fff"
         stop-opacity="0.6"
         id="stop32" /><stop
         offset="1"
         stop-color="#fff"
         stop-opacity="0"
         id="stop34" /></linearGradient><linearGradient
       id="a-1"
       x1=".05"
       x2="1"
       y2="1"
       gradientTransform="matrix(22,0,0,22,25.25,-0.62500002)"
       gradientUnits="userSpaceOnUse"><stop
         stop-color="#c0d1cd"
         offset="0.2"
         id="stop1-2"
         style="stop-color:#4389d0;stop-opacity:0.90196079;" /><stop
         offset=".205"
         id="stop2-7" /><stop
         stop-color="#454545"
         offset="1"
         id="stop3-0"
         style="stop-color:#3c62df;stop-opacity:1;" /></linearGradient><linearGradient
       id="linearGradient9"
       x1="2.0339"
       x2="21.999"
       y1="17.905"
       y2="17.905"
       gradientTransform="translate(25.25,-0.55472202)"
       gradientUnits="userSpaceOnUse"><stop
         stop-color="#c0d1cd"
         offset="0"
         id="stop4-9" /><stop
         stop-color="#f5f6ec"
         offset="1"
         id="stop5-6" /></linearGradient><linearGradient
       id="a-2"
       x1=".05"
       x2="1"
       y2="1"
       gradientTransform="matrix(22,0,0,22,-55.75,5.375)"
       gradientUnits="userSpaceOnUse"><stop
         stop-color="#2191d3"
         offset=".2"
         id="stop8-8" /><stop
         stop-color="#2ac2f0"
         offset=".205"
         id="stop9-0" /><stop
         stop-color="#0948bd"
         offset="1"
         id="stop10-9" /></linearGradient><linearGradient
       id="a-3"
       x1=".05"
       x2="1"
       y2="1"
       gradientTransform="matrix(22,0,0,22,-56.75,-22.125)"
       gradientUnits="userSpaceOnUse"><stop
         stop-color="#7e0000"
         offset="0.2"
         id="stop2-61"
         style="stop-color:#0d0d54;stop-opacity:1;" /><stop
         stop-color="#ae0003"
         offset="0.205"
         id="stop3-2"
         style="stop-color:#6437f2;stop-opacity:1;" /><stop
         stop-color="#7e0002"
         offset="1"
         id="stop4-93"
         style="stop-color:#8b47ff;stop-opacity:1;" /></linearGradient><linearGradient
       id="a-30"
       x1=".05"
       x2="1"
       y1="0"
       y2="1"
       gradientTransform="matrix(22,0,0,22,148.25,3.3011262)"
       gradientUnits="userSpaceOnUse"
       xlink:href="#linearGradient64"><stop
         style="stop-color:#f25edf;stop-opacity:1;"
         offset="0"
         id="stop1-30" /><stop
         style="stop-color:#8c2df9;stop-opacity:1;"
         offset="0.38993961"
         id="stop2-9" /><stop
         style="stop-color:#43127b;stop-opacity:1;"
         offset="1"
         id="stop3-25" /></linearGradient><linearGradient
       id="linearGradient148"
       x1="93.251526"
       y1="104.3218"
       x2="-67.822433"
       y2="-104.28946"
       spreadMethod="pad"
       gradientUnits="userSpaceOnUse"
       gradientTransform="matrix(0.03254379,0,0,0.03260219,4.2278406,4.232806)"><stop
         id="stop146"
         offset="0"
         stop-color="#093b8e"
         style="stop-color:#300b58;stop-opacity:1;" /><stop
         id="stop147"
         offset="0.5"
         stop-color="#093b8e"
         style="stop-color:#872bfa;stop-opacity:1;" /><stop
         id="stop148"
         offset="1"
         stop-color="#71f6b8"
         style="stop-color:#ff64dc;stop-opacity:1;" /></linearGradient><linearGradient
       id="linearGradient191"
       x1="93.251526"
       y1="104.3218"
       x2="-67.822433"
       y2="-104.28946"
       spreadMethod="pad"
       gradientUnits="userSpaceOnUse"
       gradientTransform="matrix(0.03254379,0,0,0.03260219,4.2278406,4.232806)"><stop
         id="stop189"
         offset="0"
         stop-color="#093b8e"
         style="stop-color:#0938ac;stop-opacity:1;" /><stop
         id="stop190"
         offset="0.5"
         stop-color="#093b8e"
         style="stop-color:#7562ff;stop-opacity:1;" /><stop
         id="stop191"
         offset="1"
         stop-color="#71f6b8"
         style="stop-color:#86fae6;stop-opacity:1;" /></linearGradient><linearGradient
       id="a-0"
       x1=".05"
       x2="1"
       y2="1"
       gradientTransform="matrix(22,0,0,22,224,4)"
       gradientUnits="userSpaceOnUse"><stop
         stop-color="#8f8f8f"
         offset=".2"
         id="stop1-5" /><stop
         stop-color="#fff"
         offset=".205"
         id="stop2-94" /><stop
         stop-color="#dadada"
         offset="1"
         id="stop3-6" /></linearGradient><linearGradient
       id="a-36"
       gradientTransform="matrix(33,0,0,33,18,31)"
       gradientUnits="userSpaceOnUse"><stop
         stop-color="#85C1EA"
         id="stop2-75" /><stop
         offset="1"
         stop-color="#3C90C9"
         id="stop3-62" /></linearGradient><style
       id="current-color-scheme-61"
       type="text/css">
   .ColorScheme-Text { color:#dfdfdf; } .ColorScheme-Highlight { color:#4285f4; } .ColorScheme-NeutralText { color:#ff9800; } .ColorScheme-PositiveText { color:#4caf50; } .ColorScheme-NegativeText { color:#f44336; }
  </style><style
       id="current-color-scheme-6"
       type="text/css">.ColorScheme-Text { color:#dfdfdf; } .ColorScheme-Highlight { color:#4285f4; } .ColorScheme-NeutralText { color:#ff9800; } .ColorScheme-PositiveText { color:#4caf50; } .ColorScheme-NegativeText { color:#f44336; }</style><style
       id="current-color-scheme-9"
       type="text/css">
   .ColorScheme-Text { color:#444444; } .ColorScheme-Highlight { color:#4285f4; } .ColorScheme-NeutralText { color:#ff9800; } .ColorScheme-PositiveText { color:#4caf50; } .ColorScheme-NegativeText { color:#f44336; }
  </style><style
       id="style1262">.cls-1{fill:none}.cls-1,.cls-2{stroke:#4374ba}.cls-1,.cls-2,.cls-4{stroke-miterlimit:10;stroke-width:2px}.cls-2{fill:#4474ba}.cls-4{fill:#4374ba;stroke:#fff}</style><linearGradient
       id="outerBackgroundGradient-0-0"><stop
         style="stop-color:#3689e6;stop-opacity:1"
         offset="0"
         id="stop3864-8-6-3-9" /><stop
         style="stop-color:#90dbec;stop-opacity:1"
         offset="1"
         id="stop3866-9-1-7-7" /></linearGradient><clipPath
       clipPathUnits="userSpaceOnUse"
       id="clipPath11237"><path
         id="path11239"
         d="M 84,46.5 C 56.568735,46.5 34.5,68.568732 34.5,96 v 120 c 0,27.43127 22.068735,49.5 49.5,49.5 h 120 c 27.43127,0 49.5,-22.06873 49.5,-49.5 V 96 C 253.5,68.568732 231.43127,46.5 204,46.5 Z"
         style="color:#bebebe;display:inline;overflow:visible;visibility:visible;opacity:0.5;fill:#b46464;fill-opacity:1;fill-rule:nonzero;stroke:none;stroke-width:2;marker:none;enable-background:accumulate"
         inkscape:connector-curvature="0" /></clipPath><filter
       inkscape:label="Inset"
       inkscape:menu="Shadows and Glows"
       inkscape:menu-tooltip="Shadowy outer bevel"
       style="color-interpolation-filters:sRGB;"
       id="filter5182"
       x="0.024453126"
       y="0.026357896"
       width="0.95109375"
       height="1.0251789"><feMorphology
         result="result1"
         in="SourceAlpha"
         operator="dilate"
         radius="3.6"
         id="feMorphology5170" /><feGaussianBlur
         stdDeviation="3.6"
         in="result1"
         result="result0"
         id="feGaussianBlur5172" /><feDiffuseLighting
         surfaceScale="-5"
         id="feDiffuseLighting5176"><feDistantLight
           elevation="45"
           azimuth="225"
           id="feDistantLight5174" /></feDiffuseLighting><feComposite
         in2="result0"
         operator="in"
         result="result91"
         id="feComposite5178" /><feComposite
         in="SourceGraphic"
         in2="result91"
         id="feComposite5180" /></filter><linearGradient
       id="a-29"
       x1="123.3"
       x2="8.2605"
       y1="120.17"
       y2="13.466"
       gradientTransform="matrix(0.04850606,0,0,0.04850606,-0.0441053,-0.04415909)"
       gradientUnits="userSpaceOnUse"><stop
         stop-color="#0257a9"
         offset="0"
         id="stop1-1"
         style="stop-color:#2f6294;stop-opacity:1;" /><stop
         stop-color="#4c92d6"
         offset="1"
         id="stop2-2"
         style="stop-color:#377cbd;stop-opacity:1;" /></linearGradient><linearGradient
       id="linearGradient31"
       x1="0.050000001"
       x2="1"
       y2="1"
       gradientTransform="matrix(22,0,0,22,-56.75,-22.125)"
       gradientUnits="userSpaceOnUse"><stop
         stop-color="#7e0000"
         offset="0.2"
         id="stop28"
         style="stop-color:#003466;stop-opacity:0.90196079;" /><stop
         stop-color="#ae0003"
         offset="0.205"
         id="stop30"
         style="stop-color:#0b5eae;stop-opacity:0.90196079;" /><stop
         stop-color="#7e0002"
         offset="1"
         id="stop31"
         style="stop-color:#003c78;stop-opacity:0.90196079;" /></linearGradient><linearGradient
       id="a-2-7"
       x1="123.3"
       x2="8.2605"
       y1="120.17"
       y2="13.466"
       gradientTransform="matrix(0.18333,0,0,0.18333,-0.167,-0.167)"
       gradientUnits="userSpaceOnUse"><stop
         stop-color="#0257a9"
         offset="0"
         id="stop1-9-0" /><stop
         stop-color="#4c92d6"
         offset="1"
         id="stop2-1-9" /></linearGradient><filter
       id="b"
       x="-0.069375"
       y="-0.069375"
       width="1.13875"
       height="1.13875"><feGaussianBlur
         result="coloredBlur"
         stdDeviation="2"
         id="feGaussianBlur2" /><feMerge
         id="feMerge3"><feMergeNode
           in="coloredBlur"
           id="feMergeNode2" /><feMergeNode
           in="SourceGraphic"
           id="feMergeNode3" /></feMerge></filter><linearGradient
       id="c-3"
       x1="51"
       x2="77"
       y1="51"
       y2="77"
       gradientTransform="matrix(1.7117,0,0,1.7117,-45.547,-45.547)"
       gradientUnits="userSpaceOnUse"><stop
         stop-color="#068fd4"
         offset="0"
         id="stop3-60" /><stop
         stop-color="#0891b2"
         offset="1"
         id="stop4-62" /></linearGradient><linearGradient
       inkscape:collect="always"
       xlink:href="#linearGradient24"
       id="linearGradient26"
       x1="0.47216311"
       y1="0.62591684"
       x2="5.9012227"
       y2="5.6773109"
       gradientUnits="userSpaceOnUse" /></defs><g
     inkscape:label="Camada 1"
     inkscape:groupmode="layer"
     id="layer1"><rect
       x="0.37861878"
       y="0.56197482"
       width="5.5927625"
       height="5.2260504"
       rx="0.7160154"
       fill="url(#a)"
       opacity="0.9"
       stroke="#808080"
       stroke-opacity="0.2"
       stroke-width="0.92882"
       vector-effect="non-scaling-stroke"
       style="fill:url(#linearGradient26);-inkscape-stroke:hairline;fill-opacity:1;stroke:none;opacity:1"
       id="rect2" /><path
       id="rect23"
       style="fill:#292929;fill-opacity:1;-inkscape-stroke:hairline"
       d="m 0.37878863,4.8937581 v 0.1782837 c 0,0.3966726 0.319046,0.7162354 0.71571797,0.7162354 h 4.1609857 c 0.396673,0 0.715719,-0.3195628 0.715719,-0.7162354 V 4.8937581 Z" /><path
       id="path74"
       style="fill:#ffffff;stroke:none;stroke-width:0.0158192"
       class="cls-3"
       d="M 3.7966675 0.85782878 C 3.7748925 0.857792 3.7519191 0.85993395 3.7274211 0.86402995 C 3.3354224 0.92952045 3.3517334 1.3859619 3.3517334 1.3859619 C 3.3517334 1.3859619 3.3519506 1.5881445 3.5403524 1.6903361 C 3.6972768 1.7806631 3.7875255 1.6829485 3.8028687 1.6675985 C 3.8182147 1.6522505 4.1373105 1.2530358 4.0860555 2.0112467 C 4.0860555 2.0112467 4.1983082 1.8889071 4.2054281 1.5978353 C 4.2125481 1.3067632 4.0250773 1.2888102 4.0250773 1.2888102 C 4.0250773 1.2888102 3.9422668 1.2680515 3.778064 1.4453898 C 3.6395176 1.5950143 3.6093147 1.6129952 3.6033976 1.6148885 L 3.6028809 1.6148885 C 3.6028809 1.6148885 3.5562257 1.6475311 3.5506877 1.5652791 C 3.5451577 1.4830201 3.5274957 1.233937 3.778064 1.0991577 C 4.0286376 0.96437895 4.150651 1.2944946 4.150651 1.2944946 C 4.150651 1.2944946 4.1231397 0.85838493 3.7966675 0.85782878 z M 3.0892171 1.0469645 A 0.13319711 0.17764887 77.92 0 0 3.0432251 1.0521322 A 0.13319711 0.17764887 77.92 0 0 2.8974976 1.2195638 A 0.13319711 0.17764887 77.92 0 0 3.0990356 1.3125814 A 0.13319711 0.17764887 77.92 0 0 3.2447632 1.1451497 A 0.13319711 0.17764887 77.92 0 0 3.0892171 1.0469645 z M 2.262911 1.1032918 C 2.262911 1.1032918 2.1504969 1.2252726 2.1435384 1.5161865 C 2.1365784 1.8071009 2.3233724 1.8246948 2.3233724 1.8246948 C 2.3233724 1.8246948 2.4061829 1.8449342 2.5703857 1.6675985 C 2.7038008 1.523516 2.7369878 1.5016433 2.7445353 1.4986165 L 2.7450521 1.4986165 L 2.7455688 1.4986165 L 2.7460856 1.4986165 C 2.7460856 1.4986165 2.792386 1.4661249 2.797762 1.5482259 C 2.803102 1.6303269 2.821113 1.8802009 2.5703857 2.0143473 C 2.3196507 2.1484931 2.1977987 1.8190104 2.1977987 1.8190104 C 2.1977987 1.8190104 2.2295464 2.3153245 2.6215454 2.2499919 C 3.0135441 2.1846589 2.9972331 1.7275431 2.9972331 1.7275431 C 2.9972331 1.7275431 2.9977065 1.5260355 2.8086141 1.4236857 C 2.6516871 1.3333587 2.5615998 1.4309123 2.5460978 1.4464233 C 2.5305928 1.4619283 2.2116559 1.8610283 2.262911 1.1032918 z M 0.9921875 1.2578044 C 0.85638239 1.2578044 0.74672445 1.3674623 0.74672445 1.5032674 L 0.74672445 1.7688843 C 0.74672445 1.9046894 0.85638239 2.0138306 0.9921875 2.0138306 L 1.2572876 2.0138306 C 1.3930927 2.0138306 1.5027507 1.9046894 1.5027507 1.7688843 L 1.5027507 1.5032674 C 1.5027507 1.3674623 1.3930927 1.2578044 1.2572876 1.2578044 L 0.9921875 1.2578044 z M 3.1279744 1.3456543 A 0.13588649 0.13588649 0 0 0 3.0029175 1.4918986 A 0.13367168 0.13367168 0 0 0 3.0091187 1.5234212 C 3.0091187 1.5234212 3.0879462 1.8378257 3.5134806 1.8479492 C 3.5134806 1.8477918 3.2680081 1.672922 3.273702 1.471228 A 0.13588649 0.13588649 0 0 0 3.1279744 1.3456543 z M 0.9921875 2.4690999 C 0.85638239 2.4690999 0.74672445 2.5782411 0.74672445 2.7140462 L 0.74672445 2.9796631 C 0.74672445 3.1154682 0.85638239 3.2246094 0.9921875 3.2246094 L 1.2572876 3.2246094 C 1.3930927 3.2246094 1.5027507 3.1154682 1.5027507 2.9796631 L 1.5027507 2.7140462 C 1.5027507 2.5782411 1.3930927 2.4690999 1.2572876 2.4690999 L 0.9921875 2.4690999 z M 0.9921875 5.0575724 C 0.94042102 5.0575724 0.89865316 5.0993403 0.89865316 5.1511068 L 0.89865316 5.437911 C 0.89865316 5.4896774 0.94042102 5.5314453 0.9921875 5.5314453 L 1.2789917 5.5314453 C 1.3307582 5.5314453 1.372526 5.4896774 1.372526 5.437911 L 1.372526 5.1511068 C 1.372526 5.0993403 1.3307582 5.0575724 1.2789917 5.0575724 L 0.9921875 5.0575724 z M 4.5253052 5.2095011 C 4.4735387 5.2095011 4.4317708 5.2472993 4.4317708 5.2942505 C 4.4317708 5.3412016 4.4735387 5.3789998 4.5253052 5.3789998 L 5.3552287 5.3789998 C 5.4069952 5.3789998 5.448763 5.3412016 5.448763 5.2942505 C 5.448763 5.2472993 5.4069952 5.2095011 5.3552287 5.2095011 L 4.5253052 5.2095011 z " /></g><style
     type="text/css"
     id="style222">
	.st0{display:none;}
	.st1{fill:#D8D8D8;}
	.st2{fill:#999999;}
	.st3{fill:#CC5E55;}
	.st4{fill:#FFC328;}
	.st5{fill:#006699;}
	.st6{fill:#33CC33;}
	.st7{fill:#002A44;}
	.st8{fill:#FFFFFF;}
	.st9{fill:#2991C9;}
</style><style
     type="text/css"
     id="style883">
	.st0{display:none;}
	.st1{fill:#2991C9;}
	.st2{fill:#006699;}
	.st3{fill:#002A44;}
	.st4{fill:#FFFFFF;}
	.st5{fill:#214478;}
</style></svg>
