<svg xmlns="http://www.w3.org/2000/svg" id="Layer_1" width="600" height="408.8" data-name="Layer 1" viewBox="0 0 300 204.4"><defs id="defs1264"><style id="style1262">.cls-1,.cls-2{fill:none;stroke:#4374ba;stroke-miterlimit:10;stroke-width:2px}.cls-2{fill:#4474ba}</style></defs><g id="g6146" transform="translate(247.521 -127.168)"><path id="rect1268" d="M-246.521 318.723v6.465c0 2.98 2.4 5.38 5.38 5.38h287.24c2.98 0 5.38-2.4 5.38-5.38v-6.465z" class="cls-2" style="font-weight:700;font-size:24px;font-family:Lato-Bold,Lato;fill:#4474ba;stroke:none;stroke-width:2px;stroke-miterlimit:10"/><rect id="rect1266" width="298" height="202.19" x="-246.521" y="128.168" class="cls-1" rx="5" style="fill:none;stroke:#4374ba;stroke-width:2px;stroke-miterlimit:10"/><path id="polygon1276" d="M293.52 198.17H242Z" style="font-weight:700;font-size:24px;font-family:Lato-Bold,Lato;letter-spacing:-.02em;fill:#4374ba;stroke:#fff;stroke-width:2px;stroke-miterlimit:10" transform="translate(-247.52 127.168)"/><rect id="rect1278" width="15.77" height="15.77" x="-236.061" y="138.089" class="cls-2" rx="4" style="font-weight:700;font-size:24px;font-family:Lato-Bold,Lato;fill:#4474ba;stroke:#4374ba;stroke-width:2px;stroke-miterlimit:10"/><path id="polygon1280" d="M27.23 32.61H11.9Z" class="cls-1" style="fill:none;stroke:#4374ba;stroke-width:2px;stroke-miterlimit:10" transform="translate(-247.52 127.168)"/><text id="text1308-1" x="37.735" y="238.188" style="font-weight:700;font-size:24px;font-family:Lato-Bold,Lato;text-align:end;letter-spacing:-.01em;text-anchor:end;fill:#4374ba;stroke:none;stroke-width:2px;stroke-miterlimit:10">Hybrid</text><g id="g4" transform="translate(17.679)"><rect id="rect1" width="8.262" height="8.262" x="-134.331" y="320.5" rx="4.131" style="letter-spacing:-.03em;fill:#fff;stroke:none;stroke-width:2px;stroke-miterlimit:10"/><rect id="rect2" width="8.262" height="8.262" x="-124.331" y="320.5" rx="4.131" style="letter-spacing:-.03em;fill:#fff;stroke:none;stroke-width:2px;stroke-miterlimit:10"/><rect id="rect3" width="8.262" height="8.262" x="-114.331" y="320.5" rx="4.131" style="letter-spacing:-.03em;fill:#fff;stroke:none;stroke-width:2px;stroke-miterlimit:10"/><rect id="rect4" width="8.262" height="8.262" x="-104.331" y="320.5" rx="4.131" style="letter-spacing:-.03em;fill:#fff;stroke:none;stroke-width:2px;stroke-miterlimit:10"/></g><g id="g8" transform="translate(4.743 .503)"><rect id="rect5" width="9.069" height="2.006" x="-244.764" y="320.518" rx="0" ry="0" style="opacity:1;fill:#fff;fill-opacity:1;stroke-width:.011025"/><rect id="rect6" width="9.069" height="2.006" x="-244.764" y="323.636" rx="0" ry="0" style="opacity:1;fill:#fff;fill-opacity:1;stroke-width:.011025"/><rect id="rect7" width="9.069" height="2.006" x="-244.764" y="326.755" rx="0" ry="0" style="opacity:1;fill:#fff;fill-opacity:1;stroke-width:.011025"/></g><rect id="rect8" width="11.577" height="2.006" x="-224.275" y="324.14" rx="1.003" ry="1.003" style="opacity:1;fill:#fff;fill-opacity:1;stroke-width:.0124566"/></g></svg>