<?xml version="1.0" encoding="UTF-8" standalone="no"?>
<!-- Created with Inkscape (http://www.inkscape.org/) -->

<svg
   width="24"
   height="24"
   viewBox="0 0 6.3499998 6.3499999"
   version="1.1"
   id="svg1899"
   xml:space="preserve"
   inkscape:version="1.3 (0e150ed6c4, 2023-07-21)"
   sodipodi:docname="layout-switcher.svg"
   inkscape:export-filename="../layout-switcher.svg"
   inkscape:export-xdpi="96"
   inkscape:export-ydpi="96"
   xmlns:inkscape="http://www.inkscape.org/namespaces/inkscape"
   xmlns:sodipodi="http://sodipodi.sourceforge.net/DTD/sodipodi-0.dtd"
   xmlns:xlink="http://www.w3.org/1999/xlink"
   xmlns="http://www.w3.org/2000/svg"
   xmlns:svg="http://www.w3.org/2000/svg"><sodipodi:namedview
     id="namedview1901"
     pagecolor="#ffffff"
     bordercolor="#666666"
     borderopacity="1.0"
     inkscape:showpageshadow="2"
     inkscape:pageopacity="0.0"
     inkscape:pagecheckerboard="0"
     inkscape:deskcolor="#d1d1d1"
     inkscape:document-units="mm"
     showgrid="false"
     inkscape:zoom="17.158845"
     inkscape:cx="-2.5934146"
     inkscape:cy="1.7775089"
     inkscape:window-width="3440"
     inkscape:window-height="1358"
     inkscape:window-x="2560"
     inkscape:window-y="0"
     inkscape:window-maximized="1"
     inkscape:current-layer="layer1"
     showguides="false"><inkscape:page
       x="0"
       y="0"
       width="6.3499999"
       height="6.3499999"
       id="page2"
       margin="0"
       bleed="0" /></sodipodi:namedview><defs
     id="defs1896"><style
       id="style125">.cls-1{fill:#2b91c9;}.cls-2{fill:#02679a;}.cls-3{fill:#fff;stroke:#231f20;}.cls-3,.cls-5{stroke-miterlimit:10;}.cls-4{font-size:37.88px;font-family:Lato-Bold, Lato;font-weight:700;}.cls-4,.cls-6{fill:#002b44;}.cls-5{fill:none;stroke:#002b44;stroke-width:6px;}</style><style
       id="style2805">.cls-1{fill:#069;}.cls-2{fill:#2991c9;}.cls-3{fill:#fff;}.cls-4{fill:#002a44;}.cls-5{fill:#3380cc;}.cls-6{fill:#cc5e55;}</style><linearGradient
       id="linearGradient13"
       inkscape:collect="always"><stop
         style="stop-color:#f9f9f9;stop-opacity:1"
         offset="0"
         id="stop13" /><stop
         style="stop-color:#4d4d4d;stop-opacity:1"
         offset="0.99989998"
         id="stop15" /><stop
         style="stop-color:#1a1a1a;stop-opacity:1"
         offset="1"
         id="stop14" /></linearGradient><linearGradient
       inkscape:collect="always"
       xlink:href="#linearGradient13"
       id="linearGradient14"
       x1="18"
       y1="18"
       x2="4.0198512"
       y2="3.8411913"
       gradientUnits="userSpaceOnUse"
       gradientTransform="scale(0.35277776)" /><clipPath
       id="59b66204e4"><path
         d="M 49.289062 34.460938 L 174.203125 34.460938 L 174.203125 97.710938 L 49.289062 97.710938 Z M 49.289062 34.460938 "
         clip-rule="nonzero"
         id="path1-2" /></clipPath><clipPath
       id="b08e5ca2ed"><path
         d="M 172.9375 63.4375 L 144.507812 35.003906 C 144.0625 34.558594 143.394531 34.425781 142.816406 34.667969 C 142.234375 34.90625 141.859375 35.472656 141.859375 36.101562 L 141.859375 45.472656 C 141.859375 47.542969 140.179688 49.21875 138.109375 49.21875 L 53.039062 49.21875 C 50.96875 49.21875 49.289062 50.898438 49.289062 52.96875 L 49.289062 79.203125 C 49.289062 81.273438 50.96875 82.953125 53.039062 82.953125 L 138.109375 82.953125 C 140.179688 82.953125 141.859375 84.628906 141.859375 86.699219 L 141.859375 96.070312 C 141.859375 96.699219 142.234375 97.265625 142.816406 97.503906 C 143.394531 97.746094 144.0625 97.613281 144.507812 97.167969 L 172.9375 68.734375 C 174.402344 67.273438 174.402344 64.898438 172.9375 63.4375 Z M 172.9375 63.4375 "
         clip-rule="nonzero"
         id="path2" /></clipPath><clipPath
       id="11fe1750aa"><path
         d="M 0.289062 0.460938 L 125.203125 0.460938 L 125.203125 63.710938 L 0.289062 63.710938 Z M 0.289062 0.460938 "
         clip-rule="nonzero"
         id="path3" /></clipPath><clipPath
       id="9a412175d5"><path
         d="M 123.9375 29.4375 L 95.507812 1.003906 C 95.0625 0.558594 94.394531 0.425781 93.816406 0.667969 C 93.234375 0.90625 92.859375 1.472656 92.859375 2.101562 L 92.859375 11.472656 C 92.859375 13.542969 91.179688 15.21875 89.109375 15.21875 L 4.039062 15.21875 C 1.96875 15.21875 0.289062 16.898438 0.289062 18.96875 L 0.289062 45.203125 C 0.289062 47.273438 1.96875 48.953125 4.039062 48.953125 L 89.109375 48.953125 C 91.179688 48.953125 92.859375 50.628906 92.859375 52.699219 L 92.859375 62.070312 C 92.859375 62.699219 93.234375 63.265625 93.816406 63.503906 C 94.394531 63.746094 95.0625 63.613281 95.507812 63.167969 L 123.9375 34.734375 C 125.402344 33.273438 125.402344 30.898438 123.9375 29.4375 Z M 123.9375 29.4375 "
         clip-rule="nonzero"
         id="path4" /></clipPath><clipPath
       id="ae5fa02500"><rect
         x="0"
         width="126"
         y="0"
         height="64"
         id="rect4" /></clipPath><clipPath
       id="0979d4186c"><path
         d="M 50.671875 137.097656 L 175.585938 137.097656 L 175.585938 200.34375 L 50.671875 200.34375 Z M 50.671875 137.097656 "
         clip-rule="nonzero"
         id="path5" /></clipPath><clipPath
       id="471064a53d"><path
         d="M 51.9375 171.371094 L 80.371094 199.800781 C 80.8125 200.246094 81.480469 200.378906 82.0625 200.136719 C 82.640625 199.898438 83.019531 199.332031 83.019531 198.703125 L 83.019531 189.335938 C 83.019531 187.265625 84.699219 185.585938 86.765625 185.585938 L 171.839844 185.585938 C 173.910156 185.585938 175.585938 183.90625 175.585938 181.839844 L 175.585938 155.601562 C 175.585938 153.53125 173.910156 151.855469 171.839844 151.855469 L 86.765625 151.855469 C 84.699219 151.855469 83.019531 150.175781 83.019531 148.105469 L 83.019531 138.734375 C 83.019531 138.109375 82.640625 137.542969 82.0625 137.300781 C 81.480469 137.0625 80.8125 137.195312 80.371094 137.636719 L 51.9375 166.070312 C 50.472656 167.535156 50.472656 169.90625 51.9375 171.371094 Z M 51.9375 171.371094 "
         clip-rule="nonzero"
         id="path6" /></clipPath><clipPath
       id="fb06b51b81"><path
         d="M 0.671875 0.0976562 L 125.585938 0.0976562 L 125.585938 63.34375 L 0.671875 63.34375 Z M 0.671875 0.0976562 "
         clip-rule="nonzero"
         id="path7" /></clipPath><clipPath
       id="fc982a3943"><path
         d="M 1.9375 34.371094 L 30.371094 62.800781 C 30.8125 63.246094 31.480469 63.378906 32.0625 63.136719 C 32.640625 62.898438 33.019531 62.332031 33.019531 61.703125 L 33.019531 52.335938 C 33.019531 50.265625 34.699219 48.585938 36.765625 48.585938 L 121.839844 48.585938 C 123.910156 48.585938 125.585938 46.90625 125.585938 44.839844 L 125.585938 18.601562 C 125.585938 16.53125 123.910156 14.855469 121.839844 14.855469 L 36.765625 14.855469 C 34.699219 14.855469 33.019531 13.175781 33.019531 11.105469 L 33.019531 1.734375 C 33.019531 1.109375 32.640625 0.542969 32.0625 0.300781 C 31.480469 0.0625 30.8125 0.195312 30.371094 0.636719 L 1.9375 29.070312 C 0.472656 30.535156 0.472656 32.90625 1.9375 34.371094 Z M 1.9375 34.371094 "
         clip-rule="nonzero"
         id="path8" /></clipPath><clipPath
       id="1ca1c229da"><rect
         x="0"
         width="126"
         y="0"
         height="64"
         id="rect8" /></clipPath></defs><g
     inkscape:label="Camada 1"
     inkscape:groupmode="layer"
     id="layer1"><path
       id="path3-3"
       d="m 2.0104805,0.26458332 h 2.3290387 c 0.9673166,0 1.7458972,0.77858048 1.7458972,1.74589718 v 2.3290387 c 0,0.9673166 -0.7785806,1.7458972 -1.7458972,1.7458972 H 2.0104805 c -0.9673167,0 -1.74589718,-0.7785806 -1.74589718,-1.7458972 V 2.0104805 c 0,-0.9673167 0.77858048,-1.74589718 1.74589718,-1.74589718 z"
       style="fill:url(#linearGradient14);fill-opacity:1;stroke:none;stroke-width:0.352778" /><rect
       style="fill:#b3b3b3;stroke-width:0.264583"
       id="rect1"
       width="4.1478848"
       height="0.69388407"
       x="1.1010576"
       y="4.8004088"
       ry="0.2" /><g
       id="g5"
       transform="translate(-0.04611956)"><g
         id="g3"><rect
           style="fill:#00ffff;stroke-width:0.264583"
           id="rect2"
           width="0.35465187"
           height="0.32381257"
           x="1.4340272"
           y="4.967854" /><rect
           style="fill:#2a7fff;stroke-width:0.264583"
           id="rect2-6-56"
           width="0.35465187"
           height="0.32381257"
           x="2.7408004"
           y="4.967854" /><rect
           style="fill:#ffff00;stroke-width:0.264583"
           id="rect2-6-5"
           width="0.35465187"
           height="0.32381257"
           x="2.0858276"
           y="4.9832735" /></g><rect
         style="fill:#66ff00;stroke-width:0.264583"
         id="rect2-2"
         width="0.35465187"
         height="0.32381257"
         x="3.346787"
         y="4.9675756" /><rect
         style="fill:#ff00ff;stroke-width:0.264583"
         id="rect2-6-56-7"
         width="0.35465187"
         height="0.32381257"
         x="4.6535602"
         y="4.9675756" /><rect
         style="fill:#ff5555;stroke-width:0.264583"
         id="rect2-6-5-0"
         width="0.35465187"
         height="0.32381257"
         x="3.9985874"
         y="4.982995" /></g><g
       id="g4"
       transform="translate(-0.3854911)"
       style="fill-opacity:1;fill:#1a1a1a"><g
         clip-path="url(#59b66204e4)"
         id="g14"
         style="fill:#1a1a1a;fill-opacity:1"
         transform="matrix(0.02422852,0,0,0.01854258,0.80986449,0.52004885)"><g
           clip-path="url(#b08e5ca2ed)"
           id="g13"
           style="fill:#1a1a1a;fill-opacity:1"><g
             transform="translate(49,34)"
             id="g12"
             style="fill:#1a1a1a;fill-opacity:1"><g
               clip-path="url(#ae5fa02500)"
               id="g11"
               style="fill:#1a1a1a;fill-opacity:1"><g
                 clip-path="url(#11fe1750aa)"
                 id="g10"
                 style="fill:#1a1a1a;fill-opacity:1"><g
                   clip-path="url(#9a412175d5)"
                   id="g9"
                   style="fill:#1a1a1a;fill-opacity:1"><path
                     fill="#000000"
                     d="M 0.289062,-1.644531 H 126.52344 V 65.816406 H 0.289062 Z m 0,0"
                     fill-opacity="1"
                     fill-rule="nonzero"
                     id="path9"
                     style="fill:#1a1a1a;fill-opacity:1" /></g></g></g></g></g></g><g
         clip-path="url(#0979d4186c)"
         id="g20"
         style="fill:#1a1a1a;fill-opacity:1"
         transform="matrix(0.02472294,0,0,0.01854258,0.77591618,0.52004885)"><g
           clip-path="url(#471064a53d)"
           id="g19"
           style="fill:#1a1a1a;fill-opacity:1"><g
             transform="translate(50,137)"
             id="g18"
             style="fill:#1a1a1a;fill-opacity:1"><g
               clip-path="url(#1ca1c229da)"
               id="g17"
               style="fill:#1a1a1a;fill-opacity:1"><g
                 clip-path="url(#fb06b51b81)"
                 id="g16"
                 style="fill:#1a1a1a;fill-opacity:1"><g
                   clip-path="url(#fc982a3943)"
                   id="g15"
                   style="fill:#1a1a1a;fill-opacity:1"><path
                     fill="#000000"
                     d="M 125.58594,65.453125 H -0.644531 V -2.011719 H 125.58594 Z m 0,0"
                     fill-opacity="1"
                     fill-rule="nonzero"
                     id="path14"
                     style="fill:#1a1a1a;fill-opacity:1" /></g></g></g></g></g></g></g></g><style
     type="text/css"
     id="style222">
	.st0{display:none;}
	.st1{fill:#D8D8D8;}
	.st2{fill:#999999;}
	.st3{fill:#CC5E55;}
	.st4{fill:#FFC328;}
	.st5{fill:#006699;}
	.st6{fill:#33CC33;}
	.st7{fill:#002A44;}
	.st8{fill:#FFFFFF;}
	.st9{fill:#2991C9;}
</style><style
     type="text/css"
     id="style883">
	.st0{display:none;}
	.st1{fill:#2991C9;}
	.st2{fill:#006699;}
	.st3{fill:#002A44;}
	.st4{fill:#FFFFFF;}
	.st5{fill:#214478;}
</style></svg>
